<?xml version="1.0" encoding="UTF-8"?>
<svg version="1.1" xmlns="http://www.w3.org/2000/svg" width="1024" height="1024">
<path d="M0 0 C337.92 0 675.84 0 1024 0 C1024 337.92 1024 675.84 1024 1024 C686.08 1024 348.16 1024 0 1024 C0 686.08 0 348.16 0 0 Z " fill="#FEFEFE" transform="translate(0,0)"/>
<path d="M0 0 C3.65907504 0.68607657 5.35167676 1.98984314 8 4.5625 C9.43872134 7.43994268 9.11937153 9.90815922 9.11352539 13.12353516 C9.11367142 13.79682358 9.11381744 14.470112 9.1139679 15.1638031 C9.11327027 17.39308881 9.10548489 19.62229135 9.09765625 21.8515625 C9.09579154 23.39570063 9.09436789 24.93983934 9.09336853 26.48397827 C9.08954754 30.55120472 9.07972082 34.61839555 9.06866455 38.68560791 C9.05844144 42.8346712 9.05386898 46.98374025 9.04882812 51.1328125 C9.03809819 59.27605803 9.02102677 67.41927458 9 75.5625 C10.58467728 75.27822583 12.1677057 74.98475182 13.75 74.6875 C14.63171875 74.52507812 15.5134375 74.36265625 16.421875 74.1953125 C18.89733667 73.58769918 20.82641115 72.88427701 23 71.5625 C24.36169792 68.83910416 24.13219914 66.68033708 24.1418457 63.6315918 C24.14888016 62.38657394 24.15591461 61.14155609 24.16316223 59.85881042 C24.16497812 59.19145559 24.16679401 58.52410076 24.16866493 57.83652306 C24.17583111 55.74718062 24.19149915 53.65807295 24.21000671 51.56880188 C24.26246472 45.62801361 24.31043785 39.68735272 24.32592773 33.74633789 C24.33602287 30.1127765 24.36538633 26.47980406 24.40724754 22.8464756 C24.41954249 21.4634834 24.42468153 20.08040795 24.42244911 18.6973629 C24.42009025 16.75870925 24.44448794 14.82007939 24.4699707 12.8815918 C24.47877007 11.22851265 24.47877007 11.22851265 24.48774719 9.54203796 C25.12449399 5.83837596 26.31710048 4.16193179 29 1.5625 C34.32835821 0.71672886 34.32835821 0.71672886 37 1.5625 C40.33366416 4.2391744 41.84348297 5.71225389 42.62818909 9.9750061 C42.62915085 11.28085663 42.63011261 12.58670715 42.63110352 13.93212891 C42.63825882 14.65646118 42.64541412 15.38079346 42.65278625 16.1270752 C42.66965349 18.51505202 42.65027315 20.9011446 42.62890625 23.2890625 C42.62973568 24.95950474 42.63219787 26.6299469 42.63621521 28.30038452 C42.63907256 31.80255696 42.62438849 35.30408973 42.59692383 38.80615234 C42.56299917 43.26800446 42.56880664 47.72870126 42.5875864 52.19060707 C42.5982268 55.64307042 42.58915261 59.09527136 42.57420158 62.54771042 C42.56906001 64.19093417 42.56945204 65.83418581 42.57574654 67.47740555 C42.61498948 83.89074324 38.99290836 94.45031089 27.4375 106.3125 C25.29485549 108.42151556 23.26857506 110.09314163 20.8125 111.875 C15.05840339 117.37335898 13.76378599 124.02144711 13.5390625 131.8046875 C13.52798227 134.68341012 13.57318388 137.55931474 13.625 140.4375 C13.63889572 142.02587149 13.65188881 143.61425109 13.6640625 145.20263672 C13.84094781 161.90122018 14.55258565 178.59504786 15.28759766 195.27685547 C15.33365143 196.3462738 15.3797052 197.41569214 15.42715454 198.51751709 C15.51273923 200.48745086 15.60164423 202.45724564 15.69515991 204.42681885 C15.97074096 210.77371466 16.02292834 217.10736848 16.01147461 223.45895386 C16.01064629 224.33654578 16.00981796 225.21413771 16.00896454 226.11832333 C16.00681722 228.26638322 16.00352497 230.41444192 16 232.5625 C17.28846317 232.56098112 18.57692634 232.55946224 19.90443385 232.55789733 C76.67377645 232.49123854 133.44312292 232.42952507 190.2124939 232.39312744 C191.07160545 232.39257521 191.93071701 232.39202298 192.81586226 232.39145402 C211.4855053 232.37948311 230.15514878 232.36840228 248.8247929 232.35823868 C257.98003781 232.35324922 267.1352826 232.34806302 276.29052734 232.34277344 C277.20159683 232.3422504 278.11266632 232.34172737 279.05134398 232.34118848 C308.59552541 232.3241352 338.13967629 232.29408408 367.6838392 232.25731112 C398.03773453 232.21959881 428.39161294 232.19496242 458.7455313 232.18684004 C463.03025837 232.18568738 467.31498538 232.18438483 471.59971237 232.18299103 C472.44302963 232.18272134 473.28634688 232.18245164 474.15521921 232.18217378 C487.7444998 232.17744214 501.33372817 232.15887706 514.92298745 232.13517186 C528.57619054 232.11164914 542.22934173 232.10262148 555.88256438 232.10849449 C563.9997796 232.11154279 572.11680526 232.10337273 580.23398634 232.07930983 C586.28713583 232.06258747 592.34008053 232.06663109 598.3932486 232.07890442 C600.8482568 232.08060213 603.30328072 232.07546212 605.7582577 232.06296727 C609.08419666 232.04701742 612.4091938 232.05550358 615.73511696 232.07030869 C616.6980056 232.05980063 617.66089423 232.04929258 618.65296131 232.0384661 C624.2797785 232.0954345 627.55373031 232.77291939 632 236.5625 C636.13688025 241.25841812 637.35456542 244.01819628 637.28515625 250.17578125 C636.72206827 254.8887505 634.44656194 258.24744369 630.9375 261.4375 C627.12925825 263.64873714 624.02678584 263.67323087 619.71191406 263.64086914 C618.41336487 263.63499283 617.11481567 263.62911652 615.7769165 263.62306213 C614.73589153 263.6160538 614.73589153 263.6160538 613.67383575 263.60890388 C609.98826282 263.58969632 606.30277553 263.60494174 602.6171875 263.61523438 C597.93161475 263.62747177 593.24695415 263.6292114 588.56152344 263.58666992 C584.77086013 263.55316369 580.98199692 263.55878387 577.19133759 263.59023857 C575.7513179 263.59514804 574.31117485 263.58595176 572.87134552 263.56202888 C564.7804774 263.22975609 564.7804774 263.22975609 557.61053467 266.33033752 C555.86953816 268.32549195 554.449698 270.35293934 553 272.5625 C550.296875 274.76953125 550.296875 274.76953125 547.75 276.375 C546.50476563 277.18904297 546.50476563 277.18904297 545.234375 278.01953125 C534.75052935 283.02088274 524.22331009 282.99232144 512.86402893 282.95018005 C511.02754817 282.9543574 509.19106998 282.95983711 507.35459656 282.96649987 C502.32886461 282.98092041 497.30329712 282.97672035 492.2775563 282.96933305 C486.84936932 282.96459533 481.4212176 282.97711654 475.99304199 282.98735046 C465.36715395 283.00453155 454.74132505 283.00537994 444.11542673 283.00013756 C435.47781824 282.99609358 426.84022721 282.99754213 418.20261955 283.00288582 C416.35749852 283.00400845 416.35749852 283.00400845 414.47510232 283.00515376 C411.97608296 283.00668526 409.47706361 283.00822361 406.97804426 283.00976873 C384.21976731 283.02310005 361.4615221 283.01877747 338.70324568 283.00755819 C317.94397877 282.99745575 297.18479274 283.00581333 276.42553711 283.02905273 C253.08413118 283.05511656 229.74277431 283.06791975 206.4013533 283.06086498 C194.04911948 283.05737274 181.69695207 283.05960531 169.34472847 283.07711601 C158.83038526 283.09183668 148.31615525 283.09247503 137.80181427 283.0750451 C132.43929967 283.06653198 127.07698731 283.0643934 121.71448326 283.07969666 C116.801289 283.09354395 111.88847023 283.08877984 106.97529768 283.06945742 C105.20220911 283.06569729 103.42909046 283.06861973 101.6560287 283.07906907 C86.41441361 283.16247496 74.91589897 280.82122097 63 270.5625 C61.0435348 268.62304754 59.57380634 266.84180573 58 264.5625 C58 263.9025 58 263.2425 58 262.5625 C45.13 262.5625 32.26 262.5625 19 262.5625 C19.33 268.8325 19.66 275.1025 20 281.5625 C15.79779412 294.16911765 15.79779412 294.16911765 9.3125 297.875 C4.1093196 300.240082 -0.753925 300.63686465 -6.20703125 298.83203125 C-12.51789189 295.96345823 -15.69555887 291.93939174 -18.37213135 285.54269409 C-19.45961729 282.11294293 -19.37063422 278.79040399 -19.2734375 275.22265625 C-19.26226898 274.43778336 -19.25110046 273.65291046 -19.23959351 272.84425354 C-19.0882282 265.32761772 -18.4958331 257.85813595 -17.83169556 250.37246704 C-14.81072355 215.69752461 -13.90497113 180.78078463 -13.64852905 145.98495483 C-13.63303712 144.06076052 -13.61140707 142.13660427 -13.5831604 140.21255493 C-12.99417778 125.50502994 -12.99417778 125.50502994 -19.52832031 112.85449219 C-21.22713508 111.20706681 -22.99004342 109.69632452 -24.8125 108.1875 C-35.01376436 99.19731456 -41.21096719 89.68324593 -42.29042053 75.83734131 C-42.44764535 71.54185131 -42.44454125 67.24700752 -42.43359375 62.94921875 C-42.4381649 61.3650541 -42.44347322 59.78089143 -42.44947815 58.19673157 C-42.45835513 54.89791738 -42.45604461 51.59934606 -42.44604492 48.30053711 C-42.43450178 44.08279728 -42.45487493 39.8658881 -42.48396206 35.64825726 C-42.50233042 32.38563265 -42.50203141 29.12320754 -42.49632454 25.8605442 C-42.49617172 24.30527383 -42.5021832 22.7499896 -42.51461601 21.19476891 C-42.52955528 19.02213847 -42.51883378 16.85105011 -42.50170898 14.6784668 C-42.50154282 13.44589645 -42.50137665 12.21332611 -42.50120544 10.94340515 C-41.90251166 6.90488778 -40.54854001 4.71628617 -38 1.5625 C-35.81640625 0.765625 -35.81640625 0.765625 -33.5625 0.8125 C-32.82128906 0.79703125 -32.08007812 0.7815625 -31.31640625 0.765625 C-27.62155381 2.03670409 -25.67609163 4.13513188 -24 7.5625 C-23.38120985 11.63717041 -23.35748895 15.65567361 -23.40841484 19.77252769 C-23.43395631 21.8537614 -23.42900226 23.93302691 -23.41651917 26.01435852 C-23.3958397 30.42645881 -23.4154385 34.83794055 -23.4375 39.25 C-23.45861411 44.37489386 -23.46320555 49.49915281 -23.43699837 54.62403297 C-23.4336359 56.67352953 -23.45485475 58.72181162 -23.47740173 60.77116394 C-23.47382156 62.01287857 -23.47024139 63.2545932 -23.46655273 64.53393555 C-23.47275131 65.62836472 -23.47894989 66.72279388 -23.4853363 67.85038757 C-23.23992017 70.62874251 -23.23992017 70.62874251 -21.33021545 72.36506653 C-18.61715948 73.75923119 -16.26117302 74.28398513 -13.25 74.75 C-11.77273437 74.98783203 -11.77273437 74.98783203 -10.265625 75.23046875 C-9.51796875 75.34003906 -8.7703125 75.44960938 -8 75.5625 C-8.01665459 74.26370659 -8.01665459 74.26370659 -8.03364563 72.93867493 C-8.13389205 64.77285929 -8.20998737 56.60725074 -8.25906086 48.44096088 C-8.28513862 44.24268119 -8.32050223 40.04491055 -8.37719727 35.84692383 C-8.43158381 31.79444068 -8.46143425 27.74244667 -8.47438622 23.68962669 C-8.48361434 22.14462777 -8.50163536 20.59965517 -8.52865028 19.05486488 C-8.56503239 16.88796086 -8.56994204 14.72306924 -8.56762695 12.5559082 C-8.58428154 10.70724907 -8.58428154 10.70724907 -8.60127258 8.82124329 C-7.67403416 3.79584868 -5.04723536 0.94635663 0 0 Z " fill="#0C517D" transform="translate(203,267.4375)"/>
<path d="M0 0 C6.7478116 4.10787829 13.66327391 10.14621 16.52734375 17.7265625 C18.43168558 26.88628933 17.88918869 35.9459347 13 44 C14.423125 44.12955078 14.423125 44.12955078 15.875 44.26171875 C64.07228703 49.06876555 111.48588166 67.61404008 150 97 C150.85682373 97.64485352 150.85682373 97.64485352 151.73095703 98.30273438 C160.64508771 105.02945376 168.97350988 112.23943446 177 120 C177.65323242 120.63131836 178.30646484 121.26263672 178.97949219 121.91308594 C187.19222581 129.89393061 195.01844318 137.90681919 202 147 C202.79535156 148.00160156 203.59070313 149.00320313 204.41015625 150.03515625 C242.89545504 198.74182738 264.41873832 260.02672809 264 322 C254.76 322 245.52 322 236 322 C235.5875 318.04 235.175 314.08 234.75 310 C229.08609454 258.55701726 213.44257972 208.47191176 180 168 C179.57009766 167.47535156 179.14019531 166.95070313 178.69726562 166.41015625 C135.44851531 113.75401354 75.58407552 80.78073994 7.52734375 73.3359375 C6.36332031 73.22507812 5.19929688 73.11421875 4 73 C2.90816406 72.88914062 1.81632812 72.77828125 0.69140625 72.6640625 C-64.68820681 66.9654861 -132.04457046 87.44899245 -182.40576172 129.63476562 C-187.42206861 133.93050653 -192.24596455 138.41722971 -197 143 C-197.55606934 143.53415527 -198.11213867 144.06831055 -198.68505859 144.61865234 C-205.99501206 151.67690009 -212.83865718 158.8967158 -219 167 C-219.48436523 167.63502441 -219.96873047 168.27004883 -220.46777344 168.92431641 C-228.9337182 180.1019684 -236.33124926 191.66844442 -243 204 C-243.36963867 204.68271973 -243.73927734 205.36543945 -244.12011719 206.06884766 C-249.96891788 217.00906978 -254.64548755 228.39369104 -259 240 C-259.24347168 240.64759277 -259.48694336 241.29518555 -259.73779297 241.96240234 C-269.3102818 267.88056646 -272.83072814 294.63380118 -275 322 C-284.57 322 -294.14 322 -304 322 C-306.33369778 251.21116738 -274.52533 181.28867755 -227 130 C-218.49840636 121.02195978 -209.75582448 112.61198544 -200 105 C-198.88405382 104.07481961 -197.77094045 103.14621537 -196.66015625 102.21484375 C-155.41696725 67.90525985 -105.31920143 50.96684825 -53 43 C-53.27714844 42.45730469 -53.55429687 41.91460937 -53.83984375 41.35546875 C-54.20207031 40.64003906 -54.56429687 39.92460937 -54.9375 39.1875 C-55.47697266 38.12595703 -55.47697266 38.12595703 -56.02734375 37.04296875 C-58.62985577 31.57664833 -58.8472396 26.30729676 -57.3515625 20.46875 C-53.75517271 10.50951674 -46.46033774 2.77718575 -36.875 -1.75 C-25.53496232 -6.27760466 -10.76133633 -5.93158982 0 0 Z " fill="#0B507C" transform="translate(532,154)"/>
<path d="M0 0 C74.55729167 0 74.55729167 0 86.875 11.25 C94.26885499 19.21932012 95.38523504 28.72583274 95.21875 39.16015625 C94.79314178 46.63110061 92.87396885 53.20392894 88 59 C84.86926888 61.64524995 81.67498993 64.16250503 78 66 C78.73605469 66.38671875 79.47210938 66.7734375 80.23046875 67.171875 C89.79805426 72.27795763 96.49367853 76.70730073 100.125 87.2734375 C102.89115348 99.05428759 101.60969756 111.26645256 95.4375 121.6875 C88.35411131 131.45947418 77.46747155 135.61462456 66 138 C44.1673811 140.72907736 22.00252511 139 0 139 C0 93.13 0 47.26 0 0 Z " fill="#0B507D" transform="translate(113,596)"/>
<path d="M0 0 C11.22 0 22.44 0 34 0 C40.74453961 14.61316916 40.74453961 14.61316916 43.3046875 20.80859375 C43.72676231 21.82604927 43.72676231 21.82604927 44.15736389 22.86405945 C45.06554534 25.05426076 45.97030896 27.24585494 46.875 29.4375 C48.1847288 32.60087034 49.49640146 35.76343209 50.80859375 38.92578125 C51.14554764 39.7383136 51.48250153 40.55084595 51.82966614 41.38800049 C54.37312374 47.5128371 56.94780453 53.62405938 59.53515625 59.73046875 C59.90515747 60.60462936 60.27515869 61.47878998 60.65637207 62.37944031 C62.10796059 65.80848827 63.55964737 69.23747203 65.01824951 72.6635437 C66.02434908 75.02701212 67.02622026 77.39223298 68.02734375 79.7578125 C68.32971451 80.46443527 68.63208527 81.17105804 68.94361877 81.89909363 C71 86.77279048 71 86.77279048 71 89 C71.66 89 72.32 89 73 89 C73.10836182 88.3201001 73.21672363 87.6402002 73.32836914 86.93969727 C74.12434508 83.45574734 75.3870459 80.25685977 76.74609375 76.96484375 C77.02899261 76.26942978 77.31189148 75.57401581 77.60336304 74.85752869 C78.54374772 72.54905969 79.4905 70.24326226 80.4375 67.9375 C81.09954773 66.31736109 81.76124313 64.69707817 82.42260742 63.07666016 C83.84617215 59.59068918 85.27245696 56.10584555 86.70019531 52.62158203 C88.70304462 47.73062531 90.69484769 42.8352403 92.68363953 37.93855286 C94.32307791 33.90266475 95.96548354 29.86798814 97.60842896 25.83352661 C98.41022358 23.8634346 99.21106824 21.8929557 100.01095581 19.92208862 C101.13561251 17.15247111 102.26453039 14.3846281 103.39453125 11.6171875 C103.73036224 10.78759018 104.06619324 9.95799286 104.41220093 9.10325623 C104.88068954 7.95942223 104.88068954 7.95942223 105.35864258 6.79248047 C105.62872635 6.12908661 105.89881012 5.46569275 106.17707825 4.78219604 C107 3 107 3 109 0 C120.22 0 131.44 0 143 0 C143 45.87 143 91.74 143 139 C134.75 139 126.5 139 118 139 C117.67 106.99 117.34 74.98 117 42 C100.43370099 82.97339446 100.43370099 82.97339446 84 124 C76.08 124 68.16 124 60 124 C57.40936542 118.81873085 54.99329297 113.77817546 52.85546875 108.42578125 C52.56376297 107.70359909 52.27205719 106.98141693 51.97151184 106.23735046 C51.04040556 103.93030287 50.11378161 101.62148831 49.1875 99.3125 C48.61033912 97.87943116 48.03286601 96.44648803 47.45507812 95.01367188 C45.3031451 89.67587813 43.15159621 84.33792952 41 79 C36.05 66.79 31.1 54.58 26 42 C25.67 74.01 25.34 106.02 25 139 C16.75 139 8.5 139 0 139 C0 93.13 0 47.26 0 0 Z " fill="#0B507C" transform="translate(408,596)"/>
<path d="M0 0 C9.9 0 19.8 0 30 0 C30 16.83 30 33.66 30 51 C43.53 51 57.06 51 71 51 C71 34.17 71 17.34 71 0 C80.57 0 90.14 0 100 0 C100 42.24 100 84.48 100 128 C90.43 128 80.86 128 71 128 C71 110.84 71 93.68 71 76 C57.47 76 43.94 76 30 76 C30 93.16 30 110.32 30 128 C20.1 128 10.2 128 0 128 C0 85.76 0 43.52 0 0 Z " fill="#0B517D" transform="translate(364,322)"/>
<path d="M0 0 C9.06667895 7.37350397 14.64941415 17.63752904 16.53125 29.234375 C16.76871363 32.6365377 16.76704822 36.01303736 16.71875 39.421875 C16.7177832 40.73575195 16.7177832 40.73575195 16.71679688 42.07617188 C16.68743563 46.37922514 16.38684396 49.9564052 15.53125 54.234375 C-5.91875 54.234375 -27.36875 54.234375 -49.46875 54.234375 C-47.29370791 65.40941709 -47.29370791 65.40941709 -43.46875 71.234375 C-43.46875 71.894375 -43.46875 72.554375 -43.46875 73.234375 C-42.88867188 73.52054688 -42.30859375 73.80671875 -41.7109375 74.1015625 C-40.32370274 74.80243023 -38.94997062 75.53175063 -37.6015625 76.3046875 C-29.93100891 80.33396662 -21.68686653 80.50962542 -13.3359375 78.46875 C-8.19374031 76.703309 -3.80949031 74.48993023 0.53125 71.234375 C1.52125 70.574375 2.51125 69.914375 3.53125 69.234375 C5.06766144 71.64231808 6.58521395 74.05906147 8.09375 76.484375 C8.53138672 77.16628906 8.96902344 77.84820313 9.41992188 78.55078125 C9.82919922 79.21464844 10.23847656 79.87851562 10.66015625 80.5625 C11.04244385 81.1699707 11.42473145 81.77744141 11.81860352 82.40332031 C12.73304443 84.75286018 12.4275121 85.91072125 11.53125 88.234375 C0.16638265 98.78939432 -16.24909379 101.93118837 -31.171875 101.55078125 C-45.52665532 100.78838292 -57.82430463 93.53602278 -67.46875 83.234375 C-78.56003876 68.53307363 -80.62444742 49.8991096 -78.16845703 32.05224609 C-75.48380886 18.96415878 -67.22425458 6.826671 -56.15625 -0.515625 C-38.41343878 -11.20524166 -17.31412271 -12.38288523 0 0 Z " fill="#0C4F7C" transform="translate(650.46875,636.765625)"/>
<path d="M0 0 C9.88274998 -0.3455507 18.74342477 1.89005429 26.54296875 8.15234375 C34.04106373 15.30414117 37.32232194 22.39519259 37.66322327 32.83505249 C37.6660907 34.22125129 37.66353541 35.60746846 37.65649414 36.99365234 C37.65664017 37.75530701 37.65678619 38.51696167 37.65693665 39.30169678 C37.65624393 41.80142129 37.64848174 44.30106987 37.640625 46.80078125 C37.63875854 48.54098469 37.63733571 50.28118866 37.63633728 52.02139282 C37.63253006 56.58833278 37.62271517 61.15524064 37.6116333 65.72216797 C37.60138052 70.3876909 37.59683139 75.05321904 37.59179688 79.71875 C37.58109122 88.86329758 37.56350903 98.00781297 37.54296875 107.15234375 C28.63296875 107.15234375 19.72296875 107.15234375 10.54296875 107.15234375 C10.52838623 105.13431641 10.51380371 103.11628906 10.4987793 101.03710938 C10.44829838 94.34743585 10.38167999 87.6579918 10.30725384 80.96854401 C10.26264762 76.91524773 10.2233705 72.86204971 10.1965332 68.80859375 C10.17040229 64.89210302 10.12993203 60.97599237 10.07978249 57.05973816 C10.06317959 55.57037609 10.05162453 54.08094837 10.04535484 52.59150696 C10.39385867 40.30109006 10.39385867 40.30109006 5.16239929 29.61218262 C-0.01627234 24.96434576 -4.94601467 24.79972624 -11.63671875 24.87109375 C-18.39326161 25.54487642 -23.14058913 29.04645791 -27.45703125 34.15234375 C-28.21422953 37.5908836 -28.21422953 37.5908836 -28.11645508 41.42114258 C-28.13218063 42.49025375 -28.13218063 42.49025375 -28.14822388 43.58096313 C-28.1769022 45.92421387 -28.17069164 48.26598073 -28.1640625 50.609375 C-28.17718207 52.23892563 -28.1924871 53.86846001 -28.20988464 55.49797058 C-28.24971794 59.77729885 -28.25992395 64.05620156 -28.26391602 68.33569336 C-28.27325069 72.70634863 -28.31066627 77.07675419 -28.34570312 81.44726562 C-28.41026221 90.01567218 -28.44091945 98.58370898 -28.45703125 107.15234375 C-37.36703125 107.15234375 -46.27703125 107.15234375 -55.45703125 107.15234375 C-55.45703125 73.16234375 -55.45703125 39.17234375 -55.45703125 4.15234375 C-46.87703125 4.15234375 -38.29703125 4.15234375 -29.45703125 4.15234375 C-29.45703125 8.11234375 -29.45703125 12.07234375 -29.45703125 16.15234375 C-28.79703125 16.15234375 -28.13703125 16.15234375 -27.45703125 16.15234375 C-27.18890625 15.55292969 -26.92078125 14.95351563 -26.64453125 14.3359375 C-22.97833537 7.59447863 -15.27428445 3.97956581 -8.45703125 1.15234375 C-5.56968569 0.35371625 -2.97485655 0.18445056 0 0 Z " fill="#0A4E7B" transform="translate(740.45703125,627.84765625)"/>
<path d="M0 0 C8.91 0 17.82 0 27 0 C27.01458252 1.98249756 27.02916504 3.96499512 27.04418945 6.00756836 C27.09600547 12.58547712 27.16133508 19.16314528 27.23571491 25.74083614 C27.28028773 29.72572208 27.3195719 33.71050885 27.34643555 37.69555664 C27.37260018 41.54721582 27.41309338 45.39849071 27.46318626 49.24991035 C27.47976662 50.71332553 27.49133555 52.17680703 27.49761391 53.64030266 C27.41770488 65.17805359 27.41770488 65.17805359 31 76 C36.29935963 81.17010696 40.39178069 81.39936318 47.59375 81.3515625 C54.26334649 80.66318672 59.78758986 77.16580371 64 72 C64.61744013 68.69491986 64.61744013 68.69491986 64.54589844 64.93652344 C64.56140495 63.88226166 64.56140495 63.88226166 64.57722473 62.80670166 C64.60665027 60.49069218 64.60815175 58.1755567 64.609375 55.859375 C64.62435693 54.25081719 64.64108412 52.64227477 64.65948486 51.03375244 C64.70316964 46.80545342 64.7231598 42.57736191 64.73822021 38.34887695 C64.75778736 34.03193893 64.79975776 29.71522513 64.83984375 25.3984375 C64.91515825 16.93232286 64.96337092 8.4663705 65 0 C73.91 0 82.82 0 92 0 C92 33.99 92 67.98 92 103 C83.42 103 74.84 103 66 103 C65.67 99.7 65.34 96.4 65 93 C64.46632813 93.53109375 63.93265625 94.0621875 63.3828125 94.609375 C57.99953116 99.71324727 53.0960468 102.83074217 46 105 C45.37996094 105.19207031 44.75992188 105.38414062 44.12109375 105.58203125 C33.58930073 107.65735695 23.01128159 106.04465721 13.75 100.75 C5.23223204 94.91120745 2.11781845 88.0345868 0 78 C-0.64694167 71.91198903 -0.46919837 65.78022264 -0.390625 59.66796875 C-0.38314596 57.93777629 -0.37746091 56.20757525 -0.37347412 54.47737122 C-0.3583484 49.96784238 -0.31918283 45.45884549 -0.2746582 40.94952393 C-0.23342018 36.33035473 -0.21540276 31.71109789 -0.1953125 27.09179688 C-0.15267279 18.06092901 -0.08243352 9.03059237 0 0 Z " fill="#0A4F7B" transform="translate(233,632)"/>
<path d="M0 0 C8.91 0 17.82 0 27 0 C27.01458252 2.0838501 27.02916504 4.1677002 27.04418945 6.31469727 C27.09462845 13.21591746 27.16123976 20.11691422 27.23571491 27.01791477 C27.28035637 31.20015583 27.31962597 35.38230087 27.34643555 39.56469727 C27.37253098 43.60437145 27.41297685 47.64367493 27.46318626 51.68311882 C27.47981295 53.22075715 27.49135331 54.75845953 27.49761391 56.296175 C27.50730122 58.45768812 27.535413 60.6182618 27.56762695 62.77954102 C27.57873001 64.00753922 27.58983307 65.23553741 27.60127258 66.50074768 C28.19677931 71.72694532 29.64426898 75.64426898 33.4375 79.4375 C39.4984078 82.09579289 45.58772075 82.17938067 51.859375 80.01171875 C56.24021488 77.9185068 59.91620524 75.81334574 63 72 C63.61744013 68.69491986 63.61744013 68.69491986 63.54589844 64.93652344 C63.55623611 64.23368225 63.56657379 63.53084106 63.57722473 62.80670166 C63.60665027 60.49069218 63.60815175 58.1755567 63.609375 55.859375 C63.62435693 54.25081719 63.64108412 52.64227477 63.65948486 51.03375244 C63.70316964 46.80545342 63.7231598 42.57736191 63.73822021 38.34887695 C63.75778736 34.03193893 63.79975776 29.71522513 63.83984375 25.3984375 C63.91515825 16.93232286 63.96337092 8.4663705 64 0 C72.91 0 81.82 0 91 0 C91 33.99 91 67.98 91 103 C82.42 103 73.84 103 65 103 C65 99.37 65 95.74 65 92 C64.34 92 63.68 92 63 92 C62.75121094 92.598125 62.50242187 93.19625 62.24609375 93.8125 C58.77220787 99.91085767 50.41003377 103.17917174 44.015625 105.3046875 C33.10189392 107.82106591 22.37711907 106.1488623 12.65234375 100.6796875 C5.40661162 95.72279412 2.06268053 89.40395567 0 81 C-0.17072887 78.21956296 -0.25431055 75.5457475 -0.22705078 72.76977539 C-0.22748886 71.58318329 -0.22748886 71.58318329 -0.22793579 70.37261963 C-0.22655226 67.78085013 -0.21103755 65.18937498 -0.1953125 62.59765625 C-0.19157889 60.79162249 -0.18873356 58.98558669 -0.18673706 57.17955017 C-0.17912801 52.44325088 -0.15950312 47.7070757 -0.1373291 42.9708252 C-0.11681172 38.13095783 -0.10772277 33.29107027 -0.09765625 28.45117188 C-0.0762545 18.96738482 -0.04109476 9.48372219 0 0 Z " fill="#0B4F7B" transform="translate(800,632)"/>
<path d="M0 0 C31.68 0 63.36 0 96 0 C96 8.25 96 16.5 96 25 C85.11 25 74.22 25 63 25 C63 58.99 63 92.98 63 128 C53.43 128 43.86 128 34 128 C34 94.01 34 60.02 34 25 C22.78 25 11.56 25 0 25 C0 16.75 0 8.5 0 0 Z " fill="#0A4E7B" transform="translate(481,322)"/>
<path d="M0 0 C9.57 0 19.14 0 29 0 C29 33.99 29 67.98 29 103 C44.51 103 60.02 103 76 103 C76 111.25 76 119.5 76 128 C50.92 128 25.84 128 0 128 C0 85.76 0 43.52 0 0 Z " fill="#0B4E7B" transform="translate(595,322)"/>
<path d="M0 0 C9.24 0 18.48 0 28 0 C28.33 41.25 28.66 82.5 29 125 C32.3 125 35.6 125 39 125 C39 131.93 39 138.86 39 146 C35.30546644 147.84726678 30.94186111 147.2710578 26.875 147.3125 C25.94945312 147.34150391 25.02390625 147.37050781 24.0703125 147.40039062 C16.2482447 147.47220339 11.04375507 145.70556006 5.1875 140.5 C-0.63728534 132.68560142 -0.42957451 121.45169506 -0.34057617 112.16308594 C-0.34101425 110.9421373 -0.34145233 109.72118866 -0.34190369 108.46324158 C-0.3401873 105.15597861 -0.32527441 101.84929655 -0.30418181 98.54213619 C-0.28526625 95.07085361 -0.28365298 91.59956104 -0.28010559 88.12823486 C-0.27082838 81.57306592 -0.24627407 75.01804936 -0.21605712 68.46294713 C-0.18237737 60.99245774 -0.16599319 53.52196058 -0.15097082 46.05141401 C-0.1197199 30.70083974 -0.06476293 15.35047503 0 0 Z " fill="#12547F" transform="translate(350,590)"/>
<path d="M0 0 C4.063125 -0.0825 8.12625 -0.165 12.3125 -0.25 C13.56973877 -0.28641602 14.82697754 -0.32283203 16.12231445 -0.36035156 C23.98549101 -0.43674692 32.53042227 0.11541938 38.74780273 5.51904297 C43.94880111 11.58395474 43.50463008 17.31127256 43 25 C42.16865291 28.8097953 40.59057761 31.35573351 37.9375 34.25 C29.70342871 39.15540417 21.24043841 39.39817575 11.875 39.1875 C5.996875 39.0946875 5.996875 39.0946875 0 39 C0 26.13 0 13.26 0 0 Z " fill="#FDFDFD" transform="translate(141,674)"/>
<path d="M0 0 C3.42375 -0.061875 6.8475 -0.12375 10.375 -0.1875 C11.43251465 -0.21481201 12.4900293 -0.24212402 13.57958984 -0.27026367 C21.33469769 -0.33718008 28.34075907 0.71297442 35 4.875 C39.29986387 9.44360536 39.37897489 14.34641778 39.25 20.34375 C38.79586598 25.168924 37.1067858 27.92312733 33.6875 31.25 C28.93577156 34.34414875 24.56507013 35.25324815 18.9453125 35.1953125 C17.94516113 35.19031738 16.94500977 35.18532227 15.91455078 35.18017578 C14.66399902 35.16196777 13.41344727 35.14375977 12.125 35.125 C8.12375 35.08375 4.1225 35.0425 0 35 C0 23.45 0 11.9 0 0 Z " fill="#FBFCFC" transform="translate(141,617)"/>
<path d="M0 0 C3.40656992 3.00884856 5.84609317 6.59417393 7 11 C7 13.64 7 16.28 7 19 C-6.2 19 -19.4 19 -33 19 C-31.78088077 6.80880773 -31.78088077 6.80880773 -26 1 C-18.49139527 -4.54206539 -8.03369483 -4.70093933 0 0 Z " fill="#FCFDFD" transform="translate(634,653)"/>
<path d="M0 0 C9.9 0 19.8 0 30 0 C30 16.83 30 33.66 30 51 C43.53 51 57.06 51 71 51 C71 51.33 71 51.66 71 52 C57.14 52 43.28 52 29 52 C27.79112709 49.58225419 27.87940657 48.06668936 27.88647461 45.36669922 C27.88655014 44.40585419 27.88662567 43.44500916 27.88670349 42.45504761 C27.89186478 41.41542877 27.89702606 40.37580994 27.90234375 39.3046875 C27.9037587 38.24210724 27.90517365 37.17952698 27.90663147 36.08474731 C27.91224166 32.68146991 27.92479591 29.27825762 27.9375 25.875 C27.94251369 23.57161553 27.94707682 21.26823003 27.95117188 18.96484375 C27.96136473 13.30985039 27.98093821 7.65499833 28 2 C19.42 2 10.84 2 2 2 C2 42.92 2 83.84 2 126 C10.58 126 19.16 126 28 126 C27.98839844 122.48601562 27.97679687 118.97203125 27.96484375 115.3515625 C27.95705162 111.95931081 27.95097574 108.56706012 27.94506836 105.17480469 C27.94003041 102.81184444 27.93319992 100.44888732 27.92456055 98.0859375 C27.91247146 94.69530465 27.90676641 91.30471291 27.90234375 87.9140625 C27.89718246 86.85256989 27.89202118 85.79107727 27.88670349 84.69741821 C27.88659019 83.22611954 27.88659019 83.22611954 27.88647461 81.72509766 C27.884254 80.85905914 27.88203339 79.99302063 27.87974548 79.10073853 C28 77 28 77 29 75 C42.86 75 56.72 75 71 75 C71 75.33 71 75.66 71 76 C57.47 76 43.94 76 30 76 C30 93.16 30 110.32 30 128 C20.1 128 10.2 128 0 128 C0 85.76 0 43.52 0 0 Z " fill="#084171" transform="translate(364,322)"/>
<path d="M0 0 C11.22 0 22.44 0 34 0 C33.67 0.66 33.34 1.32 33 2 C22.77 2 12.54 2 2 2 C2 46.55 2 91.1 2 137 C9.26 137 16.52 137 24 137 C24 105.32 24 73.64 24 41 C24.33 41 24.66 41 25 41 C25 73.34 25 105.68 25 139 C16.75 139 8.5 139 0 139 C0 93.13 0 47.26 0 0 Z " fill="#08386C" transform="translate(408,596)"/>
<path d="M0 0 C17.16 0 34.32 0 52 0 C52 0.33 52 0.66 52 1 C35.5 1 19 1 2 1 C2 45.88 2 90.76 2 137 C22.13 137 42.26 137 63 137 C63 137.33 63 137.66 63 138 C42.40521185 142.11895763 21.00264534 139 0 139 C0 93.13 0 47.26 0 0 Z " fill="#043E6E" transform="translate(113,596)"/>
<path d="M0 0 C0.33 0 0.66 0 1 0 C1 40.59 1 81.18 1 123 C9.58 123 18.16 123 27 123 C26.98839844 119.48601562 26.97679687 115.97203125 26.96484375 112.3515625 C26.95705162 108.95931081 26.95097574 105.56706012 26.94506836 102.17480469 C26.94003041 99.81184444 26.93319992 97.44888732 26.92456055 95.0859375 C26.91247146 91.69530465 26.90676641 88.30471291 26.90234375 84.9140625 C26.89718246 83.85256989 26.89202118 82.79107727 26.88670349 81.69741821 C26.88659019 80.22611954 26.88659019 80.22611954 26.88647461 78.72509766 C26.884254 77.85905914 26.88203339 76.99302063 26.87974548 76.10073853 C27 74 27 74 28 72 C41.86 72 55.72 72 70 72 C70 72.33 70 72.66 70 73 C56.47 73 42.94 73 29 73 C29 90.16 29 107.32 29 125 C19.43 125 9.86 125 0 125 C0 83.75 0 42.5 0 0 Z " fill="#003668" transform="translate(365,325)"/>
<path d="M0 0 C31.68 0 63.36 0 96 0 C95.67 0.66 95.34 1.32 95 2 C64.31 2 33.62 2 2 2 C2 9.26 2 16.52 2 24 C1.34 24 0.68 24 0 24 C0 16.08 0 8.16 0 0 Z " fill="#144977" transform="translate(481,322)"/>
<path d="M0 0 C3.76904376 0.12514403 5.45715519 0.1946304 8.5 2.62890625 C9.2425 3.61890625 9.2425 3.61890625 10 4.62890625 C6.7 3.63890625 3.4 2.64890625 0 1.62890625 C-0.66 2.94890625 -1.32 4.26890625 -2 5.62890625 C-2.33 5.95890625 -2.66 6.28890625 -3 6.62890625 C-3.11288132 8.4430507 -3.15681246 10.26152599 -3.17358398 12.07910156 C-3.18707382 13.24411194 -3.20056366 14.40912231 -3.21446228 15.60943604 C-3.22490067 16.87914246 -3.23533905 18.14884888 -3.24609375 19.45703125 C-3.27059753 21.43761347 -3.29511254 23.41819562 -3.32029057 25.39876938 C-3.38113574 30.29879837 -3.43163307 35.19892469 -3.47680664 40.09912109 C-3.50248814 42.84276031 -3.53332279 45.58625343 -3.56959534 48.32977295 C-3.60341791 50.91728498 -3.62933299 53.50491481 -3.64659119 56.09259033 C-3.66323318 57.27020935 -3.67987518 58.44782837 -3.69702148 59.66113281 C-3.70732895 60.69514221 -3.71763641 61.72915161 -3.72825623 62.79449463 C-4.0111714 65.74542909 -4.76384216 67.94883069 -6 70.62890625 C-7.36617517 67.89655592 -7.10723292 65.75622776 -7.08520508 62.69799805 C-7.07801956 61.45298019 -7.07083405 60.20796234 -7.06343079 58.92521667 C-7.04949501 57.55951216 -7.03484417 56.19381477 -7.01953125 54.828125 C-7.01257421 54.14114847 -7.00561718 53.45417194 -6.99844933 52.74637794 C-6.96103492 49.10955074 -6.91701756 45.47286905 -6.86791992 41.83618164 C-6.81861362 38.08362676 -6.79239486 34.33128386 -6.77148914 30.57847881 C-6.75108898 27.68972486 -6.71320063 24.80138625 -6.6706295 21.91288185 C-6.65331664 20.52991165 -6.64260067 19.14684216 -6.63868141 17.76376915 C-6.63157879 15.82502227 -6.59722463 13.88643368 -6.56176758 11.94799805 C-6.54986893 10.84594528 -6.53797028 9.74389252 -6.52571106 8.60844421 C-5.8201656 4.60967066 -4.05069622 1.27375408 0 0 Z " fill="#01356A" transform="translate(234,268.37109375)"/>
<path d="M0 0 C0.33 0 0.66 0 1 0 C1 32.34 1 64.68 1 98 C0.67 98 0.34 98 0 98 C-0.01030746 96.85407883 -0.02061493 95.70815765 -0.03123474 94.5275116 C-0.12888504 83.74145791 -0.23161117 72.955463 -0.33933926 62.16950512 C-0.39456258 56.62401009 -0.44798171 51.07850979 -0.49731445 45.53295898 C-0.54496662 40.18371743 -0.59730985 34.83454068 -0.65294075 29.48537636 C-0.67336042 27.44200562 -0.69207414 25.39861712 -0.70907402 23.35521507 C-0.73312651 20.49870746 -0.76318008 17.64232252 -0.79467773 14.78588867 C-0.8004332 13.93640656 -0.80618866 13.08692444 -0.81211853 12.21170044 C-0.8538137 8.89686998 -0.94466727 6.16599818 -2 3 C-1.34 2.01 -0.68 1.02 0 0 Z " fill="#E0E8EF" transform="translate(525,637)"/>
<path d="M0 0 C2.5 2 2.5 2 4 4 C0.7 3.01 -2.6 2.02 -6 1 C-7.83836919 4.67673838 -8.93651813 8.04992447 -10 12 C-12 9 -12 9 -11.8125 6 C-10.09439612 -0.34376817 -6.28635943 -1.201618 0 0 Z " fill="#0A3A6C" transform="translate(240,269)"/>
<path d="M0 0 C1.231394 2.46278801 1.07159196 4.2795055 1 7 C0.01 7.33 -0.98 7.66 -2 8 C-1.67 8.99 -1.34 9.98 -1 11 C-1.66 11 -2.32 11 -3 11 C-3.66 12.32 -4.32 13.64 -5 15 C-3.97137215 9.55432314 -2.75385216 4.88182883 0 0 Z " fill="#093A6B" transform="translate(247,377)"/>
<path d="M0 0 C-1.65 0.33 -3.3 0.66 -5 1 C-5.33 1.99 -5.66 2.98 -6 4 C-7.98 4.33 -9.96 4.66 -12 5 C-8.44416617 1.04907352 -5.38741645 -1.79580548 0 0 Z " fill="#0A3769" transform="translate(733,631)"/>
<path d="M0 0 C1.46067199 0.45082469 2.91848032 0.91093537 4.375 1.375 C5.18710937 1.63023437 5.99921875 1.88546875 6.8359375 2.1484375 C9 3 9 3 11 5 C8.69 5 6.38 5 4 5 C3.67 4.01 3.34 3.02 3 2 C2.01 1.67 1.02 1.34 0 1 C0 0.67 0 0.34 0 0 Z " fill="#0A3A6D" transform="translate(620,217)"/>
<path d="M0 0 C2.475 0.99 2.475 0.99 5 2 C2.93243723 4.7972908 1.85559629 5.02692273 -1.6875 5.6875 C-2.780625 5.790625 -3.87375 5.89375 -5 6 C-1.25 4 -1.25 4 1 4 C0.67 2.68 0.34 1.36 0 0 Z " fill="#043969" transform="translate(210,560)"/>
<path d="M0 0 C0.33 0.66 0.66 1.32 1 2 C-0.61594832 4.04119788 -2.2856382 6.04072937 -4 8 C-4.66 8 -5.32 8 -6 8 C-4.55746343 4.63408134 -2.66735273 2.48952921 0 0 Z " fill="#04386A" transform="translate(487,157)"/>
</svg>
